# xmcd CD database file
# Copyright (C) 1993-1998 Ti Kan
#
# Track frame offsets:
#  150
#  13560
#  26897
#  38722
#  49547
#  64370
#  77130
#  90747
#  101147
#  114185
#  125385
#  138517
#  151250
#  160522
#  172202
#  183240
#  196470
#  210067
#  225022
#  237332
#
# Disc length: 3339 seconds
#
# Revision: 1
# Processed by: cddbd v1.4b41PL1 Copyright (c) Steve Scherf et al.
# Submitted via: CDWizzard Release:4.35
#
DISCID=f80d0914
DTITLE=Kim Weston - Kim Weston Greatest Hits and Rare Classics
DYEAR=1900
DGENRE=
TTITLE0=It Takes Two
TTITLE1=Take Me In Your Arms (Rock Me A Little While)
TTITLE2=Helpless
TTITLE3=Do Like I Do
TTITLE4=Teach Me Tonight
TTITLE5=I'm Still Lovin' You
TTITLE6=A Little More Love
TTITLE7=It Should Have Been Me
TTITLE8=Love Me All The Way
TTITLE9=Looking For The Right Guy
TTITLE10=What Good Am I Without You
TTITLE11=A Love Like Yours (Don't Come Knocking Everyday)
TTITLE12=Another Train Coming
TTITLE13=Feel Alright Tonight
TTITLE14=Baby (Don't You Leave Me)
TTITLE15=I'll Never See My Love Again
TTITLE16=A Thrill A Moment
TTITLE17=Just Loving You
TTITLE18=Don't Compare Me With Her
TTITLE19=Go Ahead And Laugh
EXTD=
EXTT0=
EXTT1=
EXTT2=
EXTT3=
EXTT4=
EXTT5=
EXTT6=
EXTT7=
EXTT8=
EXTT9=
EXTT10=
EXTT11=
EXTT12=
EXTT13=
EXTT14=
EXTT15=
EXTT16=
EXTT17=
EXTT18=
EXTT19=
PLAYORDER=
